<?xml version="1.0" encoding="utf-8"?>
<!-- Generator: Adobe Illustrator 22.0.1, SVG Export Plug-In . SVG Version: 6.00 Build 0)  -->
<svg version="1.1" id="Layer_1" xmlns="http://www.w3.org/2000/svg" xmlns:xlink="http://www.w3.org/1999/xlink" x="0px" y="0px"
	 viewBox="0 0 122.9 62.5" style="enable-background:new 0 0 122.9 62.5;" xml:space="preserve">
<style type="text/css">
	.st0{fill:#FFFFFF;}
</style>
<g>
	<path class="st0" d="M113.5,27.6c-5.2,0-4.9,5.5-4.9,6c0,5.5,3.5,6.2,4.5,6.3c4.1,0.3,4.9-2.4,4.9-2.4l4.5,1.4
		c-2.8,3.7-6.3,4.4-8.8,4.4c-9.4,0-9.3-8.5-9.3-9.1c0.3-10.5,8.5-10.1,8.8-10.1c11.3,0.4,9.5,11,9.5,11h-13.8l2.3-3.2l7.1,0
		C118.4,31.9,118.7,27.6,113.5,27.6"/>
	<polygon class="st0" points="91.3,49.1 96.5,49.1 96.5,50.3 92.5,50.3 92.5,53 96.4,53 96.4,54.1 92.5,54.1 92.5,57.8 96.5,57.8 
		96.5,58.9 91.3,58.9 	"/>
	<path class="st0" d="M22.5,29.2l5.3-4.9v11.5c0,0,0.1,2.5,3.8,2.5c3.4,0,3.6-3.6,3.6-3.6l0-5.5l5.3-5v18.2h-5.4v-2.4
		c0,0-2.9,2.9-7.4,2.7c-0.5,0-4.7-0.5-5.3-4.9C22.4,37.4,22.5,29.2,22.5,29.2"/>
	<path class="st0" d="M13,5.7L19.1,0v36.1c0,0,0.1,7-9.8,7c-0.8,0-8.5-0.1-9.3-6.4V30l6.1-5.7V35c0,0,0.3,3.2,3.4,3.2
		c3,0,3.5-2.7,3.5-3.8C13,33.5,13,5.7,13,5.7"/>
	<rect x="27.5" y="49.1" class="st0" width="1.2" height="9.8"/>
	<polygon class="st0" points="67,29.2 72.4,24.2 72.4,42.4 67,42.4 	"/>
	<polygon class="st0" points="75.8,15.1 81.1,10.2 81.1,42.5 75.7,42.5 	"/>
	<g>
		<path class="st0" d="M55.5,23.9c-4.1,0-6.4,2.7-6.4,2.7V14.8L43.8,10l0,32.3H49V41c0,0,2,2.3,5.6,2.3c4.8,0,9.5-2.3,9.5-9.4
			C64.1,26.8,59.6,23.9,55.5,23.9z M54,39.1c-3,0-5.4-2.4-5.4-5.4c0-3,2.4-5.4,5.4-5.4c3,0,5.4,2.4,5.4,5.4
			C59.4,36.6,57,39.1,54,39.1z"/>
	</g>
	<path class="st0" d="M92.6,27.6c-5.2,0-4.9,5.5-4.9,6c0,5.5,3.5,6.2,4.5,6.3c4.1,0.3,4.9-2.4,4.9-2.4l4.5,1.4
		c-2.8,3.7-6.3,4.4-8.8,4.4c-9.4,0-9.3-8.5-9.3-9.1C83.8,23.7,92,24,92.3,24c11.3,0.4,9.5,11,9.5,11H88.1l2.3-3.2l7.1,0
		C97.4,31.9,97.7,27.6,92.6,27.6"/>
	<polygon class="st0" points="30.5,48.7 37.8,56.3 37.8,49.1 39,49.1 39,59.3 31.7,51.6 31.7,58.9 30.5,58.9 	"/>
	<path class="st0" d="M45.1,51c-0.2-0.3-0.4-0.5-0.6-0.7c-0.2-0.1-0.6-0.2-0.9-0.2c-0.4,0-0.8,0.1-1.1,0.4c-0.3,0.3-0.5,0.6-0.5,1
		c0,0.3,0.1,0.6,0.4,0.8c0.3,0.2,0.6,0.4,1,0.6l0.7,0.3c0.8,0.3,1.4,0.7,1.8,1.1c0.4,0.4,0.6,1.1,0.6,1.8c0,0.9-0.3,1.6-0.9,2.2
		c-0.6,0.6-1.3,0.9-2.2,0.9c-0.8,0-1.5-0.3-2-0.8c-0.6-0.5-0.9-1.2-1-1.9l1.2-0.3c0,0.5,0.2,1,0.5,1.3c0.4,0.3,0.8,0.5,1.3,0.5
		c0.5,0,1-0.2,1.3-0.6c0.3-0.4,0.5-0.8,0.5-1.3c0-0.4-0.1-0.7-0.3-1c-0.2-0.3-0.7-0.6-1.3-0.9l-0.7-0.3c-0.7-0.3-1.2-0.6-1.6-1
		c-0.4-0.4-0.6-0.9-0.6-1.5c0-0.8,0.3-1.4,0.9-1.8c0.6-0.5,1.2-0.7,2-0.7c0.5,0,1,0.1,1.5,0.4c0.4,0.2,0.8,0.6,1.1,1.1L45.1,51z"/>
	<path class="st0" d="M48.8,49.1v5.8c0,0.9,0.2,1.7,0.5,2.2c0.3,0.6,1,0.8,1.8,0.8c0.9,0,1.5-0.3,1.8-0.8c0.4-0.6,0.5-1.3,0.5-2.2
		v-5.8h1.2v6.2c0,1.1-0.3,2-1,2.7c-0.6,0.7-1.5,1.1-2.6,1.1c-1.1,0-2-0.4-2.6-1.1c-0.6-0.7-1-1.6-1-2.7v-6.2
		C47.5,49.1,48.8,49.1,48.8,49.1z"/>
	<path class="st0" d="M62.5,58.9H61l-2.9-4.1l-0.5,0v4.1h-1.2v-9.8h1.5c0.6,0,1.1,0,1.5,0.1s0.7,0.2,1.1,0.4c0.4,0.2,0.7,0.5,0.9,1
		c0.2,0.4,0.3,0.9,0.3,1.3c0,0.7-0.2,1.3-0.6,1.8c-0.4,0.5-1,0.8-1.7,0.9L62.5,58.9z M57.6,53.8H58c0.8,0,1.4-0.1,1.9-0.4
		c0.5-0.2,0.7-0.7,0.7-1.4c0-0.7-0.2-1.2-0.7-1.4c-0.5-0.2-1.1-0.4-1.9-0.4h-0.3V53.8z"/>
	<path class="st0" d="M64.8,56.4l-1.1,2.5h-1.3L67,48.7l4.7,10.2h-1.3l-1.1-2.5H64.8z M67,51.4l-1.7,4h3.5L67,51.4z"/>
	<polygon class="st0" points="72.4,48.7 79.7,56.3 79.7,49.1 81,49.1 81,59.3 73.6,51.6 73.6,58.9 72.4,58.9 	"/>
	<path class="st0" d="M89.8,51c-0.3-0.3-0.7-0.5-1.2-0.7c-0.5-0.2-0.9-0.2-1.4-0.2c-1.1,0-2,0.4-2.7,1.2c-0.7,0.8-1.1,1.7-1.1,2.8
		c0,1.1,0.4,2,1.1,2.8c0.7,0.8,1.7,1.2,2.7,1.2c1,0,1.9-0.3,2.6-1v1.4c-0.4,0.2-0.8,0.4-1.2,0.5c-0.5,0.1-0.9,0.2-1.3,0.2
		c-1.4,0-2.6-0.5-3.6-1.5c-1-1-1.5-2.2-1.5-3.6c0-1.4,0.5-2.7,1.5-3.7c1-1,2.2-1.5,3.7-1.5c0.4,0,0.9,0.1,1.3,0.2
		c0.4,0.1,0.8,0.3,1.2,0.5L89.8,51L89.8,51z"/>
</g>
</svg>
